<?xml version="1.0" encoding="UTF-8" standalone="no"?>
<svg
   xmlns:dc="http://purl.org/dc/elements/1.1/"
   xmlns:cc="http://creativecommons.org/ns#"
   xmlns:rdf="http://www.w3.org/1999/02/22-rdf-syntax-ns#"
   xmlns:svg="http://www.w3.org/2000/svg"
   xmlns="http://www.w3.org/2000/svg"
   xmlns:sodipodi="http://sodipodi.sourceforge.net/DTD/sodipodi-0.dtd"
   xmlns:inkscape="http://www.inkscape.org/namespaces/inkscape"
   width="24"
   height="24"
   viewBox="0 0 24 24"
   version="1.1"
   id="svg4"
   sodipodi:docname="linkedin.svg"
   inkscape:version="0.92.4 5da689c313, 2019-01-14">
  <metadata
     id="metadata10">
    <rdf:RDF>
      <cc:Work
         rdf:about="">
        <dc:format>image/svg+xml</dc:format>
        <dc:type
           rdf:resource="http://purl.org/dc/dcmitype/StillImage" />
      </cc:Work>
    </rdf:RDF>
  </metadata>
  <defs
     id="defs8" />
  <sodipodi:namedview
     pagecolor="#ffffff"
     bordercolor="#666666"
     borderopacity="1"
     objecttolerance="10"
     gridtolerance="10"
     guidetolerance="10"
     inkscape:pageopacity="0"
     inkscape:pageshadow="2"
     inkscape:window-width="847"
     inkscape:window-height="1035"
     id="namedview6"
     showgrid="false"
     inkscape:zoom="9.8333333"
     inkscape:cx="12.20339"
     inkscape:cy="12"
     inkscape:window-x="856"
     inkscape:window-y="39"
     inkscape:window-maximized="0"
     inkscape:current-layer="svg4" />
  <path
     d="M19 0h-14c-2.761 0-5 2.239-5 5v14c0 2.761 2.239 5 5 5h14c2.762 0 5-2.239 5-5v-14c0-2.761-2.238-5-5-5zm-11 19h-3v-11h3v11zm-1.5-12.268c-.966 0-1.75-.79-1.75-1.764s.784-1.764 1.75-1.764 1.75.79 1.75 1.764-.783 1.764-1.75 1.764zm13.5 12.268h-3v-5.604c0-3.368-4-3.113-4 0v5.604h-3v-11h3v1.765c1.396-2.586 7-2.777 7 2.476v6.759z"
     id="path2" />
  <path
     style="fill:#f9f9f9;stroke-width:0.10169491"
     d="M 4.1389831,23.87399 C 2.1012771,23.456275 0.49227684,21.848158 0.13055502,19.867763 -0.04783484,18.891095 -0.01596351,4.8964029 0.16661223,4.0350509 0.54836095,2.2340449 1.8289822,0.81716492 3.5576141,0.28324492 4.1853965,0.08934267 4.5177496,0.08135593 11.958838,0.08135593 c 8.498414,0 8.389516,-0.0070369 9.471569,0.61205109 0.660447,0.37786918 1.42687,1.14278028 1.848338,1.84469258 0.648468,1.0799569 0.639899,0.9526978 0.639899,9.5030624 0,7.441088 -0.008,7.773441 -0.201889,8.401223 -0.397276,1.286233 -1.279734,2.333637 -2.480619,2.944295 -1.148375,0.583956 -1.250797,0.590332 -9.317492,0.580073 -4.0550847,-0.0052 -7.5559321,-0.0469 -7.7796609,-0.09276 z M 8.0296819,13.479661 8.055974,7.9118644 H 6.5296819 5.0033898 v 5.5959386 5.59594 l 1.5,-0.02814 1.5,-0.02814 z m 5.0277451,2.389831 c 0.03015,-3.169985 0.03514,-3.237825 0.274177,-3.723399 0.610934,-1.241054 2.320027,-1.487597 3.093162,-0.4462 0.480458,0.647166 0.50876,0.862656 0.55466,4.223108 l 0.04344,3.18063 1.490261,-0.02809 1.49026,-0.02809 -4.23e-4,-4.01695 c -4.07e-4,-3.857496 -0.0091,-4.039829 -0.218181,-4.59334 C 19.276604,9.0920362 18.419235,8.3315874 17.100948,8.0567165 16.491706,7.9296858 16.217665,7.9207817 15.683043,8.0106461 14.816267,8.1563419 13.862308,8.6263702 13.404164,9.1334812 L 13.037288,9.539569 V 8.7257167 7.9118644 H 11.511864 9.9864407 v 5.5932206 5.59322 h 1.5201383 1.520139 z M 7.0303042,6.6935284 C 7.420934,6.5814972 7.8988325,6.1680742 8.1141637,5.7558976 8.1930685,5.6048617 8.2576271,5.2340868 8.2576271,4.9319535 8.2576271,4.2993086 8.0048067,3.8376464 7.4557068,3.467608 6.551188,2.8580528 5.34186,3.1996466 4.8911523,4.1920069 4.6602609,4.7003797 4.6488673,5.1560081 4.8547259,5.6486969 5.065432,6.1529874 5.282256,6.3797767 5.7661017,6.6019596 6.2287305,6.8143995 6.5322065,6.8363809 7.0303042,6.6935284 Z"
     id="path12"
     inkscape:connector-curvature="0" />
</svg>
