<?xml version="1.0" encoding="UTF-8" standalone="no"?>
<svg
   xmlns:dc="http://purl.org/dc/elements/1.1/"
   xmlns:cc="http://creativecommons.org/ns#"
   xmlns:rdf="http://www.w3.org/1999/02/22-rdf-syntax-ns#"
   xmlns:svg="http://www.w3.org/2000/svg"
   xmlns="http://www.w3.org/2000/svg"
   xmlns:sodipodi="http://sodipodi.sourceforge.net/DTD/sodipodi-0.dtd"
   xmlns:inkscape="http://www.inkscape.org/namespaces/inkscape"
   width="24"
   height="24"
   viewBox="0 0 24 24"
   version="1.1"
   id="svg4"
   sodipodi:docname="twitter.svg"
   inkscape:version="0.92.4 5da689c313, 2019-01-14">
  <metadata
     id="metadata10">
    <rdf:RDF>
      <cc:Work
         rdf:about="">
        <dc:format>image/svg+xml</dc:format>
        <dc:type
           rdf:resource="http://purl.org/dc/dcmitype/StillImage" />
      </cc:Work>
    </rdf:RDF>
  </metadata>
  <defs
     id="defs8" />
  <sodipodi:namedview
     pagecolor="#ffffff"
     bordercolor="#666666"
     borderopacity="1"
     objecttolerance="10"
     gridtolerance="10"
     guidetolerance="10"
     inkscape:pageopacity="0"
     inkscape:pageshadow="2"
     inkscape:window-width="847"
     inkscape:window-height="1035"
     id="namedview6"
     showgrid="false"
     inkscape:zoom="9.8333333"
     inkscape:cx="12.20339"
     inkscape:cy="12"
     inkscape:window-x="856"
     inkscape:window-y="39"
     inkscape:window-maximized="0"
     inkscape:current-layer="svg4" />
  <path
     d="M19 0h-14c-2.761 0-5 2.239-5 5v14c0 2.761 2.239 5 5 5h14c2.762 0 5-2.239 5-5v-14c0-2.761-2.238-5-5-5zm-.139 9.237c.209 4.617-3.234 9.765-9.33 9.765-1.854 0-3.579-.543-5.032-1.475 1.742.205 3.48-.278 4.86-1.359-1.437-.027-2.649-.976-3.066-2.28.515.098 1.021.069 1.482-.056-1.579-.317-2.668-1.739-2.633-3.26.442.246.949.394 1.486.411-1.461-.977-1.875-2.907-1.016-4.383 1.619 1.986 4.038 3.293 6.766 3.43-.479-2.053 1.08-4.03 3.199-4.03.943 0 1.797.398 2.395 1.037.748-.147 1.451-.42 2.086-.796-.246.767-.766 1.41-1.443 1.816.664-.08 1.297-.256 1.885-.517-.439.656-.996 1.234-1.639 1.697z"
     id="path2" />
  <path
     style="fill:#f9f9f9;stroke-width:0.10169491"
     d="M 4.1389831,23.87399 C 2.1012771,23.456275 0.49227684,21.848158 0.13055502,19.867763 -0.04783484,18.891095 -0.01596351,4.8964029 0.16661223,4.0350509 0.54836095,2.2340449 1.8289822,0.81716492 3.5576141,0.28324492 4.1853965,0.08934267 4.5177496,0.08135593 11.958838,0.08135593 c 8.498414,0 8.389516,-0.0070369 9.471569,0.61205109 0.660447,0.37786918 1.42687,1.14278028 1.848338,1.84469258 0.648468,1.0799569 0.639899,0.9526978 0.639899,9.5030624 0,7.441088 -0.008,7.773441 -0.201889,8.401223 -0.397276,1.286233 -1.279734,2.333637 -2.480619,2.944295 -1.148375,0.583956 -1.250797,0.590332 -9.317492,0.580073 -4.0550847,-0.0052 -7.5559321,-0.0469 -7.7796609,-0.09276 z m 7.8931729,-5.13673 c 3.849952,-1.042632 6.535445,-4.399314 6.861849,-8.576842 l 0.06842,-0.8756722 0.575392,-0.5593221 c 0.518454,-0.5039739 1.103651,-1.220339 0.996893,-1.220339 -0.02302,0 -0.307874,0.091525 -0.633014,0.2033899 -0.32514,0.1118644 -0.685707,0.2033898 -0.80126,0.2033898 -0.206227,0 -0.205965,-0.00289 0.01415,-0.1570678 0.293297,-0.2054325 0.807484,-0.9572905 0.896075,-1.3102599 l 0.06983,-0.2782126 -0.496175,0.2512592 c -0.272896,0.1381926 -0.745216,0.32515 -1.0496,0.4154608 -0.549089,0.1629144 -0.555465,0.162294 -0.813559,-0.079165 -0.58538,-0.5476483 -1.104526,-0.7228235 -2.14149,-0.7226006 -0.848917,1.831e-4 -1.028274,0.032966 -1.478659,0.2702787 -0.281907,0.1485392 -0.70929,0.4835005 -0.94974,0.7443585 -0.625798,0.6789109 -0.860345,1.2654022 -0.869304,2.1737149 l -0.0074,0.7484439 -0.641093,-0.065399 C 9.7762874,9.7132201 7.6488672,8.6385361 6.2064591,7.1611686 5.8996589,6.8469326 5.621651,6.5898305 5.5886635,6.5898305 c -0.1808546,0 -0.4319689,1.0261829 -0.4230532,1.7288136 0.011367,0.8957938 0.2404758,1.4985796 0.808599,2.1274239 0.3396753,0.37598 0.3543625,0.414949 0.1563918,0.414949 -0.1201693,0 -0.382778,-0.06864 -0.583575,-0.152542 -0.2007969,-0.0839 -0.3887522,-0.152543 -0.4176785,-0.152543 -0.1228174,0 0.083701,1.032529 0.2975896,1.487856 0.2943014,0.62651 0.9802351,1.317231 1.5649588,1.575881 0.2486945,0.11001 0.4521718,0.226258 0.4521718,0.25833 0,0.03207 -0.2745763,0.03845 -0.6101695,0.01417 -0.3355932,-0.02427 -0.6101695,-0.02825 -0.6101695,-0.0088 0,0.01941 0.1118754,0.25607 0.248612,0.525906 0.4428044,0.873838 1.6484332,1.73992 2.4220462,1.73992 0.3687527,0 0.1105311,0.255166 -0.6435502,0.635935 -0.9719065,0.490761 -1.8544053,0.706729 -2.9076549,0.711573 -0.4631727,0.0021 -0.8172261,0.04417 -0.7867854,0.09343 0.106034,0.171567 1.4190835,0.774201 2.275165,1.044206 1.4530513,0.458285 3.7226435,0.503221 5.2005945,0.102967 z"
     id="path12"
     inkscape:connector-curvature="0" />
</svg>
